<?xml version="1.0" standalone="no"?>
<!DOCTYPE svg PUBLIC "-//W3C//DTD SVG 20010904//EN"
 "http://www.w3.org/TR/2001/REC-SVG-20010904/DTD/svg10.dtd">
<svg version="1.0" xmlns="http://www.w3.org/2000/svg"
 width="5000.000000pt" height="5000.000000pt" viewBox="0 0 5000.000000 5000.000000"
 preserveAspectRatio="xMidYMid meet">

<g transform="translate(0.000000,5000.000000) scale(0.100000,-0.100000)"
fill="#fff" stroke="none">
<path d="M37995 49986 c-1427 -145 -2792 -988 -3730 -2306 -84 -119 -141 -206
-968 -1480 -209 -322 -412 -634 -452 -695 -202 -310 -275 -424 -275 -428 0 -5
269 -181 980 -642 494 -321 1013 -657 2225 -1445 1023 -665 2411 -1566 2595
-1685 36 -23 274 -178 529 -344 255 -166 467 -298 471 -294 4 4 73 112 155
238 82 127 187 289 234 360 407 627 1102 1697 1173 1808 545 850 863 1794 933
2766 8 109 8 522 0 631 -56 790 -280 1472 -676 2061 -103 154 -257 338 -408
489 -533 532 -1195 853 -1971 955 -168 23 -638 29 -815 11z"/>
<path d="M31851 43974 c-123 -189 -222 -346 -220 -348 2 -2 128 -83 279 -181
403 -261 1538 -998 1855 -1204 122 -80 730 -474 2180 -1416 44 -28 125 -81
180 -117 55 -35 449 -291 875 -568 426 -277 834 -541 905 -588 479 -312 516
-335 530 -321 15 16 425 647 432 665 4 11 -38 40 -582 393 -615 398 -905 586
-2805 1821 -1070 694 -1974 1282 -2010 1305 -36 23 -351 228 -700 455 -349
227 -649 421 -665 431 l-30 18 -224 -345z"/>
<path d="M30925 42548 c-115 -178 -255 -393 -310 -478 -56 -85 -236 -362 -400
-615 -164 -253 -331 -509 -370 -570 -39 -60 -264 -407 -500 -770 -235 -363
-469 -723 -520 -800 -50 -77 -168 -259 -263 -405 -94 -146 -263 -407 -376
-580 -112 -173 -261 -403 -331 -510 -70 -107 -211 -324 -313 -482 -103 -158
-227 -350 -276 -425 -72 -110 -678 -1044 -921 -1418 -28 -44 -81 -125 -117
-180 -58 -89 -287 -441 -883 -1360 -104 -159 -222 -342 -263 -405 -42 -63
-123 -189 -182 -280 -156 -242 -1583 -2439 -2955 -4550 -166 -256 -449 -692
-630 -970 -180 -278 -365 -563 -412 -635 -108 -165 -196 -301 -643 -990 -200
-308 -401 -618 -448 -690 -47 -71 -188 -290 -315 -485 -127 -195 -276 -425
-331 -510 -56 -85 -152 -234 -215 -330 -62 -96 -161 -249 -220 -340 -59 -91
-388 -597 -731 -1125 -343 -528 -734 -1131 -870 -1340 -497 -765 -1011 -1557
-1195 -1840 -104 -159 -359 -553 -568 -875 -209 -322 -403 -621 -432 -665 -61
-94 -162 -250 -253 -390 -36 -55 -353 -543 -705 -1085 -351 -542 -677 -1043
-724 -1115 -47 -71 -256 -393 -464 -715 -427 -658 -801 -1233 -994 -1530 -151
-232 -137 -211 -675 -1040 -227 -349 -427 -657 -445 -685 -18 -27 -85 -130
-148 -227 -64 -98 -121 -186 -126 -196 -8 -16 48 -164 285 -753 162 -404 321
-798 352 -876 31 -79 60 -142 64 -140 4 1 65 91 135 200 129 199 273 421 593
912 97 149 232 357 300 462 69 106 184 283 255 393 72 110 416 640 765 1178
349 537 675 1040 725 1117 139 213 150 230 1020 1570 104 160 222 342 263 405
42 63 123 189 182 280 153 236 241 372 1510 2325 1391 2142 1654 2547 2074
3195 181 278 366 564 413 635 108 165 196 301 643 990 200 308 401 619 448
690 47 72 188 290 315 485 127 195 276 425 331 510 56 85 152 234 215 330 62
96 161 249 220 340 59 91 388 597 731 1125 343 528 734 1131 870 1340 497 765
1011 1557 1195 1840 104 160 359 553 568 875 209 322 399 614 422 650 23 36
80 124 127 195 46 72 394 607 773 1190 378 583 717 1105 753 1160 36 55 252
388 480 740 229 352 522 804 653 1005 130 201 294 453 364 560 69 107 170 263
224 345 54 83 265 409 471 725 205 316 413 636 461 710 118 181 572 881 649
1000 34 52 145 224 248 382 308 473 459 705 687 1058 120 184 237 364 260 400
23 36 105 162 182 280 359 554 634 978 720 1109 77 117 92 146 81 156 -7 7
-213 142 -458 300 -453 293 -580 376 -727 472 -46 29 -89 56 -96 59 -8 3 -86
-109 -222 -318z"/>
<path d="M32994 41543 c-32 -48 -595 -916 -1252 -1928 -657 -1012 -1223 -1883
-1257 -1935 -34 -52 -425 -655 -870 -1340 -445 -685 -1067 -1643 -1383 -2130
-316 -487 -594 -914 -617 -950 -23 -36 -223 -344 -445 -685 -221 -341 -440
-678 -487 -750 -70 -108 -751 -1156 -1049 -1615 -186 -287 -982 -1513 -1042
-1605 -59 -90 -796 -1225 -1018 -1567 -154 -238 -484 -747 -579 -893 -110
-168 -48 -73 -786 -1210 -333 -511 -689 -1060 -793 -1220 -103 -159 -284 -438
-402 -620 -118 -181 -295 -454 -393 -605 -98 -151 -300 -462 -448 -690 -964
-1485 -2044 -3148 -2091 -3220 -31 -47 -114 -175 -185 -285 -72 -110 -212
-326 -312 -480 -222 -343 -679 -1047 -786 -1210 -43 -66 -136 -209 -206 -317
-70 -109 -276 -426 -458 -705 -181 -280 -513 -791 -738 -1138 -225 -346 -433
-666 -462 -710 -66 -101 -1110 -1709 -1425 -2195 -200 -309 -769 -1185 -945
-1455 -28 -44 -199 -307 -380 -585 -180 -278 -361 -556 -401 -618 -41 -62 -74
-115 -74 -117 0 -2 6 -3 13 0 6 2 107 6 222 10 116 3 260 8 320 10 61 3 306
12 545 20 540 18 612 23 626 38 6 7 85 127 176 267 175 270 551 850 1191 1835
214 330 424 653 466 718 42 64 108 166 146 225 39 59 221 339 404 622 184 283
368 567 409 630 42 63 188 288 325 500 251 387 299 461 419 645 36 55 233 359
438 675 205 316 435 670 510 785 75 116 246 379 380 585 134 206 273 420 308
475 36 55 236 363 445 685 209 322 409 630 445 685 36 55 149 228 250 385 196
302 1469 2262 1630 2510 31 47 108 166 172 265 153 237 639 985 747 1150 78
119 388 596 536 825 34 52 98 151 143 220 44 69 287 442 538 830 252 388 496
764 543 835 97 149 1022 1574 1269 1955 91 140 243 374 338 520 195 300 608
935 1156 1780 205 316 636 980 958 1475 321 495 613 945 649 1000 36 55 115
177 175 270 61 94 478 735 926 1425 448 690 839 1291 868 1336 28 45 141 218
249 385 109 167 238 365 287 440 49 75 171 263 271 418 356 549 1213 1869
1332 2051 66 102 231 355 365 562 298 460 267 412 850 1309 261 402 476 735
478 739 2 4 -61 49 -140 100 -79 50 -234 151 -345 223 -186 121 -618 401 -670
434 -21 14 -24 10 -79 -74z"/>
<path d="M34317 39662 c-289 -444 -598 -921 -688 -1059 -90 -139 -228 -351
-305 -470 -260 -399 -696 -1071 -1129 -1738 -236 -363 -691 -1065 -1013 -1560
-321 -495 -613 -945 -649 -1000 -36 -55 -115 -176 -175 -270 -61 -93 -478
-735 -926 -1425 -448 -690 -839 -1291 -868 -1336 -28 -45 -141 -218 -249 -385
-109 -167 -238 -365 -287 -440 -49 -75 -171 -263 -271 -418 -356 -549 -1213
-1869 -1332 -2051 -66 -102 -231 -355 -365 -562 -135 -208 -274 -423 -310
-478 -36 -55 -99 -153 -141 -217 -42 -65 -229 -352 -414 -638 -186 -286 -415
-639 -510 -785 -94 -146 -235 -362 -312 -480 -348 -536 -903 -1390 -1071
-1650 -102 -157 -271 -418 -377 -580 -105 -162 -702 -1080 -1325 -2040 -623
-960 -1156 -1781 -1185 -1825 -28 -44 -170 -262 -315 -485 -145 -223 -287
-441 -315 -486 -29 -44 -137 -211 -241 -370 -103 -159 -221 -341 -262 -404
-41 -63 -212 -326 -380 -585 -309 -476 -877 -1350 -1812 -2790 -282 -434 -591
-909 -685 -1055 -145 -223 -694 -1070 -883 -1360 -31 -47 -256 -393 -500 -770
-245 -377 -470 -723 -500 -770 -376 -578 -483 -746 -479 -760 2 -8 143 -359
312 -779 169 -420 310 -774 315 -785 6 -18 20 -1 92 109 71 109 314 482 533
820 28 44 81 125 117 180 157 242 983 1514 1273 1960 175 270 341 526 370 570
187 288 1218 1875 1260 1940 173 267 957 1474 1003 1545 31 47 256 393 500
770 245 377 470 723 500 770 31 47 256 393 500 770 245 377 484 746 533 820
48 74 283 437 523 805 239 369 490 755 558 859 174 269 496 764 568 876 34 52
91 141 128 198 37 56 344 528 682 1049 338 521 677 1042 752 1158 541 833 544
836 1208 1860 188 291 1755 2703 2065 3180 28 44 170 262 315 485 144 223 292
450 328 505 36 55 178 273 315 485 137 212 285 439 328 505 43 66 136 209 206
317 70 109 405 624 743 1144 338 521 676 1041 750 1156 74 114 203 313 286
440 283 434 1197 1842 1369 2108 145 224 698 1075 883 1360 31 47 256 393 500
770 245 377 474 730 510 785 36 55 143 219 237 365 95 146 270 416 389 600
120 184 277 425 348 535 161 248 473 729 591 910 49 75 87 138 85 140 -3 3
-1073 699 -1140 741 l-37 23 -524 -807z"/>
<path d="M36124 38527 c-279 -430 -540 -831 -579 -892 -211 -324 -864 -1329
-1075 -1655 -134 -206 -289 -445 -344 -530 -56 -85 -182 -279 -280 -430 -98
-151 -237 -366 -309 -478 -73 -111 -418 -642 -767 -1180 -349 -537 -675 -1040
-725 -1117 -134 -205 -166 -255 -575 -885 -205 -316 -430 -663 -500 -770 -158
-242 -229 -352 -455 -700 -288 -444 -1062 -1636 -1133 -1745 -36 -55 -373
-575 -750 -1155 -377 -580 -827 -1273 -1000 -1540 -174 -267 -461 -710 -640
-985 -178 -275 -363 -560 -411 -633 -180 -277 -212 -326 -420 -647 -118 -181
-254 -391 -302 -465 -48 -74 -146 -224 -216 -332 -197 -304 -646 -996 -752
-1158 -52 -80 -205 -316 -341 -525 -216 -334 -689 -1061 -1805 -2780 -474
-729 -928 -1428 -1133 -1745 -356 -548 -1075 -1656 -1139 -1753 -35 -55 -593
-914 -1240 -1910 -647 -997 -1278 -1968 -1402 -2159 -124 -191 -262 -403 -306
-470 -492 -759 -1136 -1752 -1209 -1863 -51 -77 -201 -309 -335 -515 -133
-206 -333 -514 -445 -685 -111 -170 -212 -327 -225 -349 l-24 -39 109 7 c60 3
192 8 294 11 102 3 219 7 260 10 41 3 170 7 285 10 116 3 237 7 270 10 33 2
164 7 290 11 127 3 268 9 314 13 l83 6 162 250 c89 138 256 394 370 570 115
176 267 410 338 520 192 295 483 744 648 997 79 123 212 327 294 453 82 127
174 268 204 315 301 463 1105 1701 1166 1795 43 66 162 251 266 410 104 160
247 380 318 490 72 110 285 439 474 730 190 292 742 1142 1228 1890 485 748
906 1396 935 1440 209 322 755 1162 1130 1740 246 380 477 735 513 790 36 55
232 357 435 670 482 742 485 747 588 905 48 74 170 262 271 417 260 402 1692
2608 1813 2793 56 85 236 362 400 615 164 253 328 505 363 560 36 55 265 408
510 785 245 377 464 714 487 750 70 107 464 714 672 1035 107 165 254 391 326
503 73 111 418 642 767 1180 349 537 675 1040 725 1117 139 213 150 230 1020
1570 104 160 222 342 263 405 42 63 123 189 182 280 153 236 241 372 1510
2325 628 968 1279 1970 1446 2228 167 257 441 678 609 936 168 259 305 474
305 478 0 4 -40 33 -88 65 -48 31 -283 183 -522 339 -239 155 -466 302 -505
327 -38 25 -95 62 -127 83 l-56 38 -508 -782z"/>
<path d="M9961 9443 c-18 -98 -53 -277 -77 -398 -39 -199 -128 -656 -219
-1125 -130 -670 -171 -881 -225 -1160 -33 -173 -81 -416 -105 -540 -24 -124
-58 -295 -74 -380 -16 -85 -64 -330 -106 -545 -97 -499 -189 -975 -220 -1135
-13 -69 -30 -154 -37 -190 -7 -36 -13 -68 -13 -72 0 -4 89 -65 197 -135 412
-267 1390 -902 1553 -1008 743 -485 735 -480 764 -464 14 9 809 564 1766 1234
957 670 2018 1413 2358 1651 340 238 617 436 615 441 -2 4 -14 8 -28 7 -14 0
-126 -4 -250 -8 -124 -3 -263 -8 -310 -11 -47 -3 -152 -7 -235 -10 -82 -3
-347 -12 -589 -21 -241 -9 -441 -12 -446 -7 -5 6 -797 1971 -956 2371 l-17 44
-91 -6 c-50 -3 -156 -8 -236 -11 -80 -3 -203 -7 -275 -10 -71 -2 -200 -7 -285
-10 -85 -3 -213 -8 -285 -10 -71 -3 -256 -10 -410 -15 -154 -6 -334 -12 -400
-15 -66 -2 -196 -7 -290 -10 -93 -3 -206 -8 -251 -11 l-81 -5 -343 853 c-189
469 -345 861 -348 871 -2 9 -7 17 -11 17 -3 0 -21 -80 -40 -177z"/>
<path d="M8696 2928 c-5 -16 -20 -95 -86 -438 -28 -146 -60 -308 -70 -360 -11
-52 -42 -214 -70 -360 -28 -146 -76 -389 -105 -540 -30 -151 -79 -405 -110
-565 -31 -159 -69 -355 -85 -435 -43 -224 -45 -236 -29 -224 14 11 1465 1028
2101 1473 258 180 335 238 325 247 -6 6 -376 247 -822 536 -445 289 -863 560
-928 602 -74 48 -119 72 -121 64z"/>
</g>
</svg>
