<svg xmlns="http://www.w3.org/2000/svg" width="20" height="20" viewBox="0 0 15.944 15.266">
    <g id="Komponente_1_1" data-name="Komponente 1 – 1" transform="translate(0.5 0.5)">
        <line id="Linie_1" data-name="Linie 1" x2="11" fill="none" stroke="#fff" stroke-linecap="round"
            stroke-width="1" />
        <line id="Linie_2" data-name="Linie 2" x2="11" transform="translate(0 4)" fill="none"
            stroke="#fff" stroke-linecap="round" stroke-width="1" />
        <line id="Linie_3" data-name="Linie 3" x2="6" transform="translate(0 8)" fill="none"
            stroke="#fff" stroke-linecap="round" stroke-width="1" />
        <line id="Linie_4" data-name="Linie 4" x2="6" transform="translate(0 12)" fill="none"
            stroke="#fff" stroke-linecap="round" stroke-width="1" />
        <g id="Polygon_1" data-name="Polygon 1" transform="translate(13.5 7) rotate(90)" fill="#fff"
            stroke-linecap="round" stroke-linejoin="round">
            <path
                d="M 6.883100032806396 5.5 L 6 5.5 L -4.440892098500626e-16 5.5 L -0.8830999732017517 5.5 L -0.4287500083446503 4.74275016784668 L 2.571249961853027 -0.2572500109672546 L 3 -0.9718300104141235 L 3.428750038146973 -0.2572500109672546 L 6.428750038146973 4.74275016784668 L 6.883100032806396 5.5 Z"
                stroke="none" />
            <path
                d="M 3 0 L 0 5 L 6 5 L 3 0 M 3 -1 C 3.35125994682312 -1 3.676769971847534 -0.8157000541687012 3.857490062713623 -0.5145001411437988 L 6.857490062713623 4.485499858856201 C 7.042850017547607 4.794429779052734 7.047709941864014 5.179190158843994 6.870200157165527 5.492700099945068 C 6.692689895629883 5.806210041046143 6.360270023345947 6 6 6 L 0 6 C -0.3602700233459473 6 -0.6926898956298828 5.806210041046143 -0.8702001571655273 5.492700099945068 C -1.047709941864014 5.179190158843994 -1.042850017547607 4.794429779052734 -0.857490062713623 4.485499858856201 L 2.142509937286377 -0.5145001411437988 C 2.323230028152466 -0.8157000541687012 2.64874005317688 -1 3 -1 Z"
                stroke="none" fill="#fff" />
        </g>
    </g>
</svg>