<?xml version="1.0" standalone="no"?>
<!DOCTYPE svg PUBLIC "-//W3C//DTD SVG 20010904//EN"
 "http://www.w3.org/TR/2001/REC-SVG-20010904/DTD/svg10.dtd">
<svg version="1.0" xmlns="http://www.w3.org/2000/svg"
 width="514.000000pt" height="608.000000pt" viewBox="0 0 514.000000 608.000000"
 preserveAspectRatio="xMidYMid meet">

<g transform="translate(0.000000,608.000000) scale(0.100000,-0.100000)"
fill="#fff" stroke="none">
<path d="M2215 5959 c-76 -15 -222 -91 -287 -149 -109 -97 -187 -246 -205
-390 l-8 -65 -425 -5 c-416 -5 -426 -6 -490 -29 -209 -76 -341 -193 -426 -376
-54 -117 -64 -181 -64 -415 0 -178 3 -210 19 -245 39 -85 114 -125 232 -125
l69 0 2 -1677 3 -1678 28 -88 c31 -101 54 -149 107 -227 103 -150 267 -268
440 -317 62 -17 139 -18 1460 -18 l1395 0 80 27 c135 47 220 100 320 202 74
75 99 109 138 186 26 52 57 131 70 175 l22 80 3 1666 2 1667 83 4 c100 5 156
32 202 96 l30 44 3 185 c4 222 -7 318 -49 421 -80 194 -218 328 -416 403 l-88
34 -425 5 -424 5 -12 70 c-41 245 -188 423 -422 514 l-67 26 -425 2 c-240 1
-447 -3 -475 -8z m850 -418 c69 -31 152 -146 130 -181 -4 -7 -187 -10 -537
-10 l-531 0 6 36 c9 55 51 110 110 144 l52 30 365 0 c332 0 369 -2 405 -19z
m1371 -625 c108 -50 167 -143 168 -264 l1 -72 -1940 0 -1940 0 -3 65 c-5 115
53 211 160 264 l61 31 1721 0 1721 0 51 -24z m-146 -2363 c0 -1054 -4 -1630
-10 -1671 -6 -35 -20 -84 -32 -108 -50 -108 -166 -194 -288 -213 -83 -14
-2497 -15 -2589 -1 -159 23 -287 142 -320 298 -8 38 -11 513 -11 1677 l0 1625
1625 0 1625 0 0 -1607z"/>
<path d="M1766 3455 c-47 -16 -91 -57 -117 -107 -18 -36 -19 -72 -19 -1020 0
-938 1 -985 19 -1024 69 -152 265 -164 358 -22 l28 42 3 975 c2 716 0 987 -9
1018 -17 64 -70 120 -131 138 -62 18 -81 18 -132 0z"/>
<path d="M2596 3456 c-47 -18 -91 -59 -117 -108 -18 -36 -19 -73 -19 -1023 0
-950 1 -987 19 -1023 78 -152 266 -162 359 -18 l27 41 3 979 c2 861 1 985 -13
1026 -15 45 -59 97 -101 118 -37 19 -116 23 -158 8z"/>
<path d="M3425 3455 c-49 -17 -120 -92 -129 -136 -3 -17 -6 -469 -6 -1003 0
-1088 -5 -1015 73 -1083 98 -86 250 -56 311 62 21 40 21 48 24 1013 1 664 -1
986 -8 1013 -15 53 -84 124 -135 138 -52 14 -81 13 -130 -4z"/>
</g>
</svg>
